<?xml version="1.0" encoding="UTF-8"?>
<svg version="1.1" xmlns="http://www.w3.org/2000/svg" width="1024" height="1024">
<path d="M0 0 C337.92 0 675.84 0 1024 0 C1024 337.92 1024 675.84 1024 1024 C686.08 1024 348.16 1024 0 1024 C0 686.08 0 348.16 0 0 Z " fill="#2B446D" transform="translate(0,0)"/>
<path d="M0 0 C337.92 0 675.84 0 1024 0 C1024 337.92 1024 675.84 1024 1024 C686.08 1024 348.16 1024 0 1024 C0 686.08 0 348.16 0 0 Z M170.25 123.1875 C169.46689453 123.48865723 168.68378906 123.78981445 167.87695312 124.10009766 C142.04487974 134.36439294 122.45012605 153.79606202 111 179 C105.10070307 193.58040519 102.83688795 207.92003956 102.87136555 223.56458759 C102.86961251 224.58525549 102.86785947 225.60592339 102.86605331 226.65752062 C102.86141022 230.06948976 102.86385445 233.48141596 102.86628723 236.89338684 C102.86441841 239.36763296 102.86211743 241.84187878 102.85942191 244.31612414 C102.85458276 249.69153474 102.85284846 255.06693296 102.85387802 260.44234467 C102.85540531 268.43602088 102.85123598 276.42968716 102.8460034 284.42336143 C102.83633967 299.53175188 102.83351953 314.64013892 102.83294634 329.74853209 C102.83248657 341.41628056 102.83042708 353.0840277 102.82724571 364.75177574 C102.82634815 368.11183172 102.82545834 371.47188771 102.82457083 374.83194369 C102.82434979 375.66728914 102.82412874 376.5026346 102.82390099 377.36329355 C102.81774812 400.85506642 102.8138003 424.34683884 102.81424427 447.83861256 C102.81425985 448.72404071 102.81427543 449.60946887 102.81429148 450.52172818 C102.81437458 455.00932597 102.81447363 459.49692376 102.81457619 463.98452155 C102.81459613 464.87575638 102.81461608 465.76699122 102.81463663 466.68523317 C102.81467706 468.48752606 102.81471886 470.28981894 102.81476202 472.09211183 C102.81537482 500.13506216 102.80786675 528.1780004 102.79418945 556.22094727 C102.77882539 587.7352261 102.77022341 619.249497 102.77115268 650.76377982 C102.7712273 654.12477887 102.77127601 657.48577791 102.77130699 660.84677696 C102.77131865 661.67432575 102.7713303 662.50187453 102.77134231 663.35450055 C102.77137306 676.66473886 102.76499063 689.97496665 102.75637473 703.28520183 C102.74789361 716.66396887 102.74691191 730.04272056 102.75348405 743.4214888 C102.75717646 751.36614854 102.75535653 759.3107616 102.74554171 767.25541639 C102.73882809 773.19212556 102.74260336 779.12879831 102.75041493 785.06550714 C102.75195273 787.46380889 102.75012322 789.8621157 102.74455485 792.26041148 C102.71330955 806.67424543 102.96597354 820.38826887 107.125 834.3125 C107.44150513 835.37235107 107.44150513 835.37235107 107.7644043 836.45361328 C115.66989276 861.54942895 133.26454657 882.70390158 156.40234375 895.15234375 C172.6772759 903.62163736 189.22093911 908.16454221 207.60035324 908.13142776 C209.19184556 908.13450672 209.19184556 908.13450672 210.81548923 908.13764787 C214.3827621 908.14331749 217.94999636 908.14186065 221.51727295 908.14044189 C224.09602346 908.14302556 226.67477356 908.14603873 229.25352311 908.1494453 C235.60538449 908.15701684 241.95723746 908.15921793 248.30910288 908.15977435 C255.91807542 908.16068885 263.5270402 908.16735903 271.1360094 908.17412117 C289.5279616 908.19017615 307.91991296 908.19608425 326.31187091 908.20086992 C335.0160164 908.20320675 343.72016123 908.20680954 352.4243062 908.2105653 C382.230348 908.22340145 412.03638943 908.23411972 441.84243393 908.2375679 C443.71330941 908.23778953 445.58418489 908.23801132 447.45506038 908.23823325 C449.33041589 908.23845389 451.20577141 908.23867437 453.08112693 908.2388947 C456.84330988 908.23933725 460.60549283 908.23978437 464.36767578 908.24023438 C465.30047752 908.24034377 466.23327927 908.24045316 467.19434773 908.24056586 C497.42540615 908.2441947 527.65644056 908.26010789 557.88748979 908.28342474 C589.8627772 908.30804171 621.8380509 908.32174164 653.81334805 908.32293582 C657.32615996 908.32310727 660.83897185 908.32332269 664.35178375 908.32357025 C665.21671256 908.32362602 666.08164138 908.32368179 666.97278015 908.32373925 C680.87058921 908.32488819 694.76837356 908.33589697 708.66617429 908.35045731 C722.64696668 908.3648508 736.62772754 908.36804325 750.60852531 908.36001733 C758.90519318 908.35557421 767.20175899 908.35936862 775.49841337 908.37525584 C781.70795138 908.38621063 787.91738523 908.38132335 794.12692133 908.37048396 C796.62838086 908.36853131 799.12985075 908.37158529 801.63129577 908.38032833 C837.56782932 908.49791813 866.75580192 901.52239005 893.25 876.0625 C913.44368256 855.29549522 922.18618659 826.18643495 922.13142776 797.70295238 C922.1334804 796.69904249 922.13553303 795.6951326 922.13764787 794.6608012 C922.14329839 791.29974919 922.14186302 787.93873841 922.14044189 784.5776825 C922.14302665 782.14228656 922.14604012 779.70689105 922.1494453 777.27149612 C922.15666088 771.28194331 922.1592173 765.29240426 922.15977435 759.30284845 C922.16069006 752.12585887 922.16736379 744.94887748 922.17412117 737.77189144 C922.19016308 720.42646808 922.19608262 703.08104562 922.20086992 685.73561617 C922.20320791 677.52497628 922.20681081 669.31433708 922.2105653 661.10369773 C922.22339986 632.9809378 922.23411861 604.85817825 922.2375679 576.73541546 C922.23778953 574.97079068 922.23801132 573.2061659 922.23823325 571.44154112 C922.23845389 569.67272585 922.23867437 567.90391057 922.2388947 566.1350953 C922.23933725 562.58672694 922.23978436 559.03835859 922.24023438 555.48999023 C922.24034377 554.61020452 922.24045316 553.7304188 922.24056586 552.82397291 C922.24419474 524.31083303 922.26010888 495.79771861 922.28342474 467.28458847 C922.30804785 437.11747303 922.32174191 406.95037212 922.32293582 376.78324634 C922.32310726 373.46844629 922.32332269 370.15364625 922.32357025 366.83884621 C922.3236539 365.61460903 922.3236539 365.61460903 922.32373925 364.36563978 C922.3248876 351.25849562 922.33589125 338.15137768 922.35045731 325.04424236 C922.36485862 311.85678313 922.36803885 298.66935732 922.36001733 285.48189237 C922.35557801 277.65866236 922.35935324 269.83554065 922.37525584 262.01232498 C922.38622677 256.1535341 922.38131161 250.29482333 922.37048396 244.43603001 C922.36853431 242.07862219 922.37157122 239.72120334 922.38032833 237.36381098 C922.49503247 204.37574695 916.64741357 175.67483935 895 150 C894.45085938 149.34773438 893.90171875 148.69546875 893.3359375 148.0234375 C876.06485218 129.33523748 850.00958978 118.82828702 825 117 C821.34169003 116.87067201 817.68804751 116.86192595 814.02770996 116.86857224 C812.43057595 116.86549328 812.43057595 116.86549328 810.80117661 116.86235213 C807.2391841 116.8567051 803.67723055 116.85813654 800.11523438 116.85955811 C797.53318201 116.85697316 794.95113005 116.85395964 792.36907864 116.8505547 C786.02072796 116.84299778 779.67238569 116.84078282 773.32403098 116.84022565 C765.71689152 116.83930973 758.10975977 116.83263545 750.50262364 116.82587883 C732.11960498 116.80984031 713.73658716 116.80391808 695.35356276 116.79913008 C686.6530263 116.79679208 677.9524905 116.79318921 669.25195455 116.7894347 C639.45442373 116.77660139 609.65689327 116.76588179 579.85935974 116.7624321 C577.98985173 116.76221047 576.12034372 116.76198868 574.25083572 116.76176675 C572.37688307 116.76154611 570.50293042 116.76132563 568.62897778 116.7611053 C564.86967659 116.76066275 561.1103754 116.76021564 557.35107422 116.75976562 C556.41899038 116.75965623 555.48690653 116.75954684 554.52657773 116.75943414 C524.30857867 116.75580408 494.09060362 116.73988484 463.87261376 116.71657526 C431.90525867 116.69196145 399.93791729 116.67825855 367.97055244 116.67706418 C364.45920944 116.67689273 360.94786644 116.67667731 357.43652344 116.67642975 C356.13968834 116.6763461 356.13968834 116.6763461 354.81665455 116.67626075 C340.92346204 116.6751117 327.03029424 116.6641022 313.13711006 116.64954269 C299.16454256 116.63515353 285.19200661 116.63195437 271.21943372 116.63998267 C262.92698378 116.64442742 254.63463593 116.64062471 246.34219947 116.62474416 C240.13770354 116.61379673 233.93331194 116.61867126 227.72881794 116.62951604 C225.22813881 116.63147003 222.72744934 116.62840846 220.22678471 116.61967167 C203.2369297 116.56409632 186.27440328 116.8300723 170.25 123.1875 Z " fill="#F5F4F4" transform="translate(0,0)"/>
<path d="M0 0 C1.28907084 -0.00085442 2.57814168 -0.00170885 3.90627527 -0.00258917 C7.468306 -0.00481682 11.03030645 -0.0008366 14.59233332 0.0041889 C18.43953605 0.00851812 22.28673716 0.00704522 26.13394165 0.00628662 C32.79418846 0.00576295 39.45442546 0.00889335 46.1146698 0.01452446 C55.74419659 0.02266073 65.37371865 0.02525686 75.00324851 0.02651245 C90.62753458 0.02869963 106.25181541 0.03535065 121.87609863 0.04481506 C137.05122858 0.05399783 152.2263571 0.06106297 167.40148926 0.06532288 C168.81951721 0.06572487 168.81951721 0.06572487 170.2661922 0.06613499 C177.6597595 0.06821448 185.05332683 0.07017138 192.44689417 0.07208955 C228.67037077 0.08151867 264.89383428 0.10163807 301.11730957 0.12025452 C301.11730957 47.97025452 301.11730957 95.82025452 301.11730957 145.12025452 C299.79730957 144.79025452 298.47730957 144.46025452 297.11730957 144.12025452 C295.03813099 143.95249011 292.95271709 143.85470089 290.86730957 143.80775452 C289.78965332 143.7703717 288.71199707 143.73298889 287.60168457 143.69447327 C279.60865504 144.67119997 273.39698761 149.83985494 267.11730957 154.55775452 C266.29279297 155.171026 265.46827637 155.78429749 264.61877441 156.41615295 C257.87100004 161.47147191 251.32087993 166.74676347 244.81262207 172.10462952 C241.46771485 174.85192255 238.06078177 177.49746242 234.61730957 180.12025452 C229.02894343 184.38233351 223.57102444 188.78664751 218.12902832 193.23353577 C213.82794349 196.74361649 209.49354771 200.20442526 205.11730957 203.62025452 C200.06877271 207.56210483 195.07968394 211.57050072 190.11730957 215.62025452 C184.59471722 220.1271977 179.02762185 224.56809907 173.40856934 228.95399475 C168.91067111 232.47400598 164.47745255 236.0688234 160.05480957 239.68275452 C154.26736087 244.40990727 148.39911867 248.99865227 142.45715332 253.53041077 C137.93989889 257.00553501 133.54190618 260.62758415 129.12902832 264.23353577 C124.82794349 267.74361649 120.49354771 271.20442526 116.11730957 274.62025452 C111.06876964 278.56210723 106.07979258 282.57063065 101.11730957 286.62025452 C94.41568984 292.08673051 87.64645844 297.45869513 80.83068848 302.78187561 C77.94408134 305.03670324 75.0612652 307.29634874 72.17980957 309.55775452 C71.60472656 310.00908752 71.02964355 310.46042053 70.43713379 310.9254303 C66.14464545 314.29989273 61.87714013 317.70469489 57.61730957 321.12025452 C50.48875446 326.835976 43.31001198 332.48560334 36.11730957 338.12025452 C32.53470245 340.92874016 28.9536963 343.73916885 25.37902832 346.55775452 C23.35056449 348.15633344 21.31225937 349.73698244 19.26184082 351.30775452 C8.95804309 359.07117292 8.95804309 359.07117292 3.11730957 370.12025452 C2.24805172 377.68141806 3.56898788 384.37191265 7.11730957 391.12025452 C10.49691553 395.13240705 14.85023622 397.74649378 20.00793457 398.59681702 C30.21878797 399.04799426 36.72931523 395.96688656 45.44470215 391.03334045 C50.21137593 388.43118603 54.69675412 387.05684694 60.11730957 388.12025452 C66.60989393 390.90137678 71.95531124 394.69085792 75.11730957 401.12025452 C76.64091019 405.15929627 77.3691957 408.51699019 77.38232422 412.82800293 C77.39059738 413.94207016 77.39887054 415.05613739 77.40739441 416.20396423 C77.40641251 417.41182587 77.4054306 418.6196875 77.40441895 419.864151 C77.41490876 421.83492922 77.425399 423.80570743 77.43590546 425.77648556 C77.44525773 427.88846739 77.44974174 430.0004098 77.45283508 432.11240959 C77.45958033 436.53193087 77.48137624 440.95130142 77.50537109 445.37075806 C77.55427476 454.76638804 77.58657457 464.16205024 77.61730957 473.55775452 C77.65047746 483.67273048 77.68673179 493.78764722 77.7414403 503.90253311 C77.7645655 508.2805358 77.77847379 512.65843466 77.784935 517.03649223 C77.78948805 519.11563942 77.79853766 521.19471159 77.80949402 523.27383423 C77.82271436 525.78812425 77.82929999 528.3024638 77.82722473 530.81678772 C78.02032812 557.41251937 84.98019332 581.59598711 103.61730957 601.05775452 C114.86671645 611.68001676 128.50986172 619.03303615 143.24230957 623.49525452 C144.02847656 623.73381165 144.81464355 623.97236877 145.62463379 624.21815491 C167.09836233 630.32481543 191.75136516 630.83338825 213.11730957 624.12025452 C214.35223145 623.74642639 215.58715332 623.37259827 216.85949707 622.98744202 C229.33794506 618.8643662 240.28855277 612.84751271 250.11730957 604.12025452 C250.80309082 603.52857483 251.48887207 602.93689514 252.19543457 602.32728577 C267.62149677 588.08550787 275.99462235 566.29891237 277.3434639 545.65978241 C277.68229886 536.62354552 277.656375 527.5851754 277.62601972 518.54409075 C277.61786035 514.59973528 277.63490118 510.65549058 277.64976501 506.71116638 C277.68032545 497.56899191 277.68209522 488.42692988 277.68011475 479.28471375 C277.67871379 467.62689793 277.68927806 455.9691677 277.72869247 444.31141412 C277.74349692 439.64256569 277.74345536 434.97403914 277.73121464 430.30518651 C277.72646303 427.39170702 277.73408444 424.47834782 277.74475861 421.564888 C277.74826175 419.59827906 277.73697531 417.63166057 277.72502136 415.66508484 C277.78411479 405.1533246 278.16535225 393.71151128 285.93371582 385.84291077 C289.9834368 382.64805039 294.47630121 380.33585345 299.11730957 378.12025452 C299.11730957 376.47025452 299.11730957 374.82025452 299.11730957 373.12025452 C291.53712196 369.40942706 285.10023529 368.53797842 276.72277832 368.62416077 C275.57239578 368.62270554 274.42201324 368.62125031 273.23677063 368.61975098 C270.82233122 368.62140133 268.40788033 368.63286475 265.99353027 368.65370178 C262.29800971 368.68280807 258.60391264 368.6742612 254.9083252 368.66127014 C252.55480261 368.66750388 250.20128453 368.67589196 247.84777832 368.68666077 C246.74564499 368.68372513 245.64351166 368.68078949 244.50798035 368.67776489 C243.47953506 368.69044907 242.45108978 368.70313324 241.39147949 368.71620178 C240.04106819 368.72430626 240.04106819 368.72430626 238.66337585 368.73257446 C235.59868608 369.19922339 233.70370276 370.45852496 231.11730957 372.12025452 C230.45730957 372.12025452 229.79730957 372.12025452 229.11730957 372.12025452 C229.16922796 374.98612352 229.16922796 374.98612352 230.11730957 378.12025452 C232.66206462 380.36227805 232.66206462 380.36227805 235.86730957 382.12025452 C244.294487 387.41220243 248.14121406 392.55006502 251.11730957 402.12025452 C251.88925276 406.10945043 252.24550975 409.88856053 252.25775146 413.94862366 C252.26346161 415.08937851 252.26917175 416.23013336 252.27505493 417.40545654 C252.27617279 418.64294144 252.27729065 419.88042633 252.27844238 421.15541077 C252.28340729 422.47003799 252.28837219 423.78466522 252.29348755 425.13912964 C252.306563 428.73670658 252.31304765 432.3342649 252.31749821 435.93186188 C252.32043839 438.18568162 252.32454507 440.43949638 252.32900238 442.6933136 C252.34266806 449.76263402 252.35233777 456.83194293 252.35620427 463.90127563 C252.36067493 472.02814169 252.37818045 480.1548387 252.40720487 488.2816534 C252.42892284 494.58427992 252.43891401 500.88685926 252.44024539 507.18952274 C252.44128674 510.94360941 252.44704921 514.69753701 252.465065 518.45158386 C252.48172047 521.99097576 252.48361803 525.53009203 252.47492599 529.06950951 C252.47380612 530.96330166 252.48738999 532.85708539 252.50167847 534.75082397 C252.42122612 551.55612689 248.43304316 567.39602244 237.11730957 580.12025452 C236.29359863 581.13539124 236.29359863 581.13539124 235.45324707 582.17103577 C231.31922129 586.86051435 226.69126826 589.7002534 221.17980957 592.49525452 C220.52375732 592.82920227 219.86770508 593.16315002 219.19177246 593.50721741 C206.58426941 599.55950398 189.70128279 600.67148217 176.36730957 596.43275452 C174.59671807 595.71047357 172.8436007 594.9428133 171.11730957 594.12025452 C170.3361377 593.76962952 169.55496582 593.41900452 168.75012207 593.05775452 C154.98601156 586.1995126 146.44563211 574.19005995 141.11730957 560.12025452 C137.78394355 549.19345304 136.96701642 538.79330895 136.95617676 527.43714905 C136.95121185 526.18407959 136.94624695 524.93101013 136.94113159 523.63996887 C136.92908218 520.22250921 136.921581 516.80511024 136.91712093 513.38763666 C136.91417679 511.2474088 136.91006964 509.10718613 136.90561676 506.96696091 C136.89196846 500.25539272 136.88228761 493.54383658 136.87841487 486.83225548 C136.87393422 479.11230955 136.85637483 471.39254067 136.82741427 463.67264855 C136.80573965 457.68511573 136.79570759 451.69763255 136.79437375 445.71006095 C136.79333027 442.14280539 136.78752011 438.57571686 136.76955414 435.00850296 C136.74988485 431.02632784 136.75438541 427.04437141 136.76086426 423.06214905 C136.75164948 421.89507416 136.74243469 420.72799927 136.73294067 419.52555847 C136.78954503 408.38565731 139.11034585 398.55628708 146.86730957 390.24525452 C151.72678372 385.69929482 157.06467499 382.81169244 163.11730957 380.12025452 C163.11730957 378.14025452 163.11730957 376.16025452 163.11730957 374.12025452 C158.03037586 371.64131872 154.33240133 370.7446544 148.57727051 370.73548889 C147.50031921 370.72742973 147.50031921 370.72742973 146.40161133 370.71920776 C144.85590034 370.70948586 143.31013513 370.70646857 141.76439667 370.70956421 C139.31798959 370.71406653 136.87229651 370.69997785 134.42596436 370.6811676 C128.35696928 370.63828729 122.28799215 370.62711291 116.21887207 370.61494446 C111.07603902 370.60342675 105.93353548 370.57991688 100.79084015 370.54025269 C98.38045997 370.52666671 95.97052316 370.53085415 93.56011963 370.53565979 C92.08666411 370.52632294 90.61321354 370.51615508 89.13977051 370.50502014 C87.85294373 370.5029657 86.56611694 370.50091125 85.24029541 370.49879456 C82.11730957 370.12025452 82.11730957 370.12025452 80.18719482 368.74000549 C79.11730957 367.12025452 79.11730957 367.12025452 78.97668457 364.81947327 C80.72580678 360.68028338 83.85728226 358.62067113 87.36730957 355.93275452 C88.09240723 355.3610553 88.81750488 354.78935608 89.5645752 354.20033264 C91.7380162 352.49249269 93.92473791 350.80343569 96.11730957 349.12025452 C96.70189941 348.66956604 97.28648926 348.21887756 97.88879395 347.75453186 C100.50635959 345.73768017 103.13015093 343.72924487 105.75793457 341.72572327 C110.40071909 338.15424312 114.92103495 334.4309265 119.45715332 330.72572327 C123.48798926 327.43556317 127.55495587 324.20607952 131.67980957 321.03431702 C135.03153551 318.40235274 138.31941825 315.69417406 141.61730957 312.99525452 C147.18231468 308.44575651 152.82248738 304.01924268 158.55480957 299.68275452 C166.6627235 293.54367857 174.4981819 287.10449423 182.31945801 280.60658264 C185.34176448 278.10796752 188.41049384 275.66902746 191.48059082 273.22962952 C194.26553558 271.00167371 197.03094617 268.75092779 199.79504395 266.49720764 C206.11698817 261.34312494 212.47174605 256.23868934 218.89758301 251.21473694 C223.80067591 247.37907375 228.66152142 243.49240845 233.51647949 239.59608459 C237.65148584 236.28156265 241.81436584 233.00538909 245.99230957 229.74525452 C251.27133081 225.62064339 256.45681411 221.39200763 261.61730957 217.12025452 C267.01683593 212.65501448 272.43566678 208.21881009 277.92980957 203.87025452 C278.49828613 203.41650452 279.0667627 202.96275452 279.65246582 202.49525452 C285.00841162 198.28329714 288.18182232 196.52236768 295.11730957 197.12025452 C297.09730957 198.11025452 299.07730957 199.10025452 301.11730957 200.12025452 C301.11730957 395.15025452 301.11730957 590.18025452 301.11730957 791.12025452 C249.55480957 791.20275452 197.99230957 791.28525452 144.86730957 791.37025452 C128.6041748 791.40667053 112.34104004 791.44308655 95.58508301 791.48060608 C75.68029785 791.49867249 75.68029785 791.49867249 66.35321045 791.50202942 C59.85819658 791.50574635 53.36332172 791.52036266 46.86834717 791.54255676 C39.36330901 791.56816409 31.85840329 791.5795645 24.35332121 791.57403432 C20.52074438 791.57164257 16.68846286 791.57521743 12.8559413 791.59711504 C-22.35745509 791.78832161 -52.60724437 785.18590875 -79.07019043 760.37025452 C-98.32792809 740.09895172 -108.07230661 713.41634352 -108.01132488 685.68430138 C-108.01395444 684.15592908 -108.01395444 684.15592908 -108.01663712 682.59668058 C-108.02128664 679.18463352 -108.0188343 675.77262927 -108.0164032 672.36058044 C-108.0182717 669.88862277 -108.02057256 667.41666538 -108.02326852 664.94470847 C-108.02811036 659.57114583 -108.02984142 654.19759558 -108.02881241 648.82403183 C-108.02728591 640.83298049 -108.03145274 632.84193909 -108.03668703 624.85088969 C-108.04635416 609.7468516 -108.04917104 594.6428169 -108.04974409 579.53877608 C-108.0502038 567.87292782 -108.052263 556.20708089 -108.05544472 544.54123306 C-108.05634228 541.18206871 -108.05723209 537.82290435 -108.0581196 534.46373999 C-108.05834064 533.62861559 -108.05856169 532.79349118 -108.05878944 531.93305998 C-108.06494308 508.44450601 -108.06889006 484.9559525 -108.06844616 461.46739769 C-108.06843058 460.58195395 -108.068415 459.69651022 -108.06839895 458.78423486 C-108.06831584 454.29654217 -108.0682168 449.80884948 -108.06811424 445.32115678 C-108.0680943 444.429902 -108.06807435 443.53864722 -108.0680538 442.62038472 C-108.06801337 440.81805004 -108.06797157 439.01571535 -108.06792841 437.21338067 C-108.06731577 409.17728786 -108.07482035 381.14120715 -108.08850098 353.1051178 C-108.10386879 321.59851788 -108.11246677 290.09192592 -108.11153775 258.58532202 C-108.11146313 255.22427154 -108.11141442 251.86322105 -108.11138344 248.50217056 C-108.11137178 247.67461012 -108.11136013 246.84704968 -108.11134812 245.99441165 C-108.11131738 232.68916254 -108.11769745 219.38392395 -108.1263157 206.07867796 C-108.13480158 192.70087448 -108.13577482 179.32308636 -108.12920638 165.94528167 C-108.12551691 158.00326936 -108.12732504 150.06130376 -108.13714872 142.11929642 C-108.14387178 136.18096288 -108.14007894 130.24266566 -108.1322755 124.30433245 C-108.13073993 121.90798406 -108.1325588 119.51163058 -108.13813557 117.11528818 C-108.21484795 81.80366328 -100.67976477 53.30976676 -75.38659668 27.58119202 C-55.03101058 8.04224905 -27.73795148 -0.06741701 0 0 Z " fill="#921841" transform="translate(210.8826904296875,116.87974548339844)"/>
<path d="M0 0 C9.29195362 4.17557971 17.09219065 11.05109969 24.96289062 17.39941406 C27.4773099 19.42069881 30.01818766 21.40576715 32.56420898 23.38696289 C38.95493792 28.3649169 45.24305538 33.465966 51.52001953 38.58618164 C55.53470447 41.85771445 59.58581972 45.06961528 63.69140625 48.2265625 C66.35153098 50.31544249 68.96880554 52.45197036 71.58618164 54.59399414 C78.56731488 60.30689235 85.63730649 65.87252772 92.82641602 71.32128906 C98.27404985 75.45885937 103.61567776 79.7143708 108.92651367 84.02563477 C113.24066394 87.5030517 117.68673277 90.67231705 122.37109375 93.640625 C124.12890625 95.140625 124.12890625 95.140625 125.0390625 97.08984375 C125.22225244 101.27135322 121.77824747 104.18707968 119.12890625 107.140625 C115.45880094 110.80319416 111.70010087 113.88953323 107.19140625 116.453125 C101.82921721 119.60860801 98.08567713 124.42364119 94.12890625 129.140625 C90.36560568 128.56555885 88.64034279 127.0083546 85.94140625 124.390625 C81.52411875 120.2967114 76.93137522 116.58581098 72.12890625 112.953125 C71.40566162 112.40567627 70.68241699 111.85822754 69.93725586 111.29418945 C68.43275738 110.1563376 66.92795086 109.01889294 65.42285156 107.88183594 C55.34129529 100.22946692 45.39787878 92.39478576 35.53076172 84.46850586 C30.85248828 80.71148279 26.14371638 76.99535491 21.41503906 73.30200195 C18.29524858 70.86052285 15.19976604 68.39346448 12.12890625 65.890625 C11.46117187 65.34857422 10.7934375 64.80652344 10.10546875 64.24804688 C8.82557902 63.20718793 7.5492841 62.16188645 6.27734375 61.11132812 C1.80836794 57.48397662 -2.39060552 54.56183998 -8.18359375 53.578125 C-16.3540399 54.82446424 -23.13542007 61.8191922 -29.30859375 67.015625 C-30.80428559 68.26089956 -32.30037665 69.50569478 -33.796875 70.75 C-34.50408691 71.33974609 -35.21129883 71.92949219 -35.93994141 72.53710938 C-39.86842523 75.7990919 -43.87397504 78.96358384 -47.87109375 82.140625 C-49.01992197 83.06071027 -50.16832592 83.98132543 -51.31640625 84.90234375 C-57.4558956 89.826251 -63.60895251 94.73011885 -69.80859375 99.578125 C-75.56802963 104.08391169 -81.24732359 108.68265759 -86.91210938 113.30664062 C-91.17399823 116.77944302 -95.47221382 120.19894971 -99.80859375 123.578125 C-105.01141839 127.63310385 -110.10977084 131.80061776 -115.18359375 136.015625 C-120.8170584 140.69139429 -126.53065022 145.22627362 -132.37109375 149.640625 C-140.45799337 155.75307784 -148.26808945 162.16894074 -156.06445312 168.64550781 C-162.72304986 174.15594652 -169.54689973 179.46180144 -176.34838867 184.79370117 C-180.71007384 188.21701115 -185.04578114 191.67150996 -189.37109375 195.140625 C-193.71646369 198.62493345 -198.069639 202.09840352 -202.44873047 205.5402832 C-203.63176759 206.47022559 -204.81313173 207.40230088 -205.99267578 208.33666992 C-208.54032009 210.34837462 -211.09353412 212.29778396 -213.74609375 214.171875 C-214.57109375 214.7596875 -215.39609375 215.3475 -216.24609375 215.953125 C-216.95507812 216.43394531 -217.6640625 216.91476562 -218.39453125 217.41015625 C-220.52110829 219.90241452 -219.97253251 221.96194213 -219.87109375 225.140625 C-218.93672485 225.14427063 -218.00235596 225.14791626 -217.03967285 225.15167236 C-208.21227257 225.18869506 -199.38521878 225.24654685 -190.55808258 225.32452774 C-186.02047835 225.36395167 -181.48306669 225.39616497 -176.9453125 225.41162109 C-172.56193439 225.42682134 -168.17908591 225.46132612 -163.79594421 225.50893402 C-162.12795122 225.52371322 -160.45988259 225.53166402 -158.79182434 225.53250885 C-142.6867424 225.54886171 -142.6867424 225.54886171 -135.87109375 230.140625 C-135.87109375 232.120625 -135.87109375 234.100625 -135.87109375 236.140625 C-136.80050781 236.6253125 -137.72992188 237.11 -138.6875 237.609375 C-149.40481758 243.35317381 -156.87751464 249.18135851 -160.87109375 261.140625 C-161.69599994 264.67170435 -161.99997268 267.94007304 -162.01153564 271.56280518 C-162.01724579 272.63895081 -162.02295593 273.71509644 -162.02883911 274.82385254 C-162.02995697 275.9947644 -162.03107483 277.16567627 -162.03222656 278.37207031 C-162.03719147 279.61345764 -162.04215637 280.85484497 -162.04727173 282.1338501 C-162.05936327 285.53542916 -162.06683558 288.93694685 -162.07128239 292.33854008 C-162.07422222 294.47126844 -162.078329 296.60399153 -162.08278656 298.73671722 C-162.09646065 305.43069026 -162.10612434 312.12465111 -162.10998845 318.81863713 C-162.11445102 326.50458369 -162.13191485 334.19035081 -162.16098905 341.87624288 C-162.18275498 347.84089484 -162.19270081 353.80549692 -162.19402957 359.77018809 C-162.19506821 363.32038587 -162.20077016 366.870415 -162.21884918 370.42057037 C-162.33479497 394.59207806 -162.21612553 420.01520358 -144.62109375 438.890625 C-131.21801772 451.40998173 -115.88285564 453.77038045 -98.37890625 453.26806641 C-84.68677294 452.5722629 -72.32549101 445.8035964 -63.08984375 435.86328125 C-53.72361436 424.36986244 -48.77528631 410.14115117 -48.73065186 395.29879761 C-48.72494171 394.15515244 -48.71923157 393.01150726 -48.71334839 391.83320618 C-48.71223053 390.59257919 -48.71111267 389.35195221 -48.70996094 388.07373047 C-48.70499603 386.75589066 -48.70003113 385.43805084 -48.69491577 384.08027649 C-48.68184175 380.47456963 -48.67535629 376.86888135 -48.67090511 373.26315451 C-48.66796552 371.00533013 -48.66385901 368.74751073 -48.65940094 366.48968887 C-48.64573745 359.41076173 -48.63606591 352.33184609 -48.63219905 345.25290668 C-48.62772485 337.10904071 -48.61020189 328.96534312 -48.58119845 320.82152832 C-48.55950452 314.50874205 -48.54949063 308.19600289 -48.54815793 301.88317978 C-48.54711515 298.12133234 -48.54132103 294.35964341 -48.52333832 290.59783554 C-48.50672417 287.05352522 -48.50476589 283.5094903 -48.51347733 279.96515465 C-48.51460119 278.06382092 -48.50098627 276.16249578 -48.48672485 274.26121521 C-48.53650924 263.88657158 -49.53093442 252.14505214 -56.87109375 244.140625 C-60.39166578 241.23950846 -64.06460357 238.65078726 -67.87109375 236.140625 C-68.86109375 235.480625 -69.85109375 234.820625 -70.87109375 234.140625 C-71.05859375 231.015625 -71.05859375 231.015625 -70.87109375 228.140625 C-64.63889037 223.69086603 -59.46843755 223.55358312 -51.9453125 223.609375 C-50.23115898 223.60363464 -50.23115898 223.60363464 -48.4823761 223.59777832 C-46.07100542 223.59506352 -43.65960507 223.60239427 -41.24829102 223.61914062 C-37.58086495 223.64049532 -33.91541117 223.61935287 -30.24804688 223.59375 C-27.89713113 223.59639451 -25.54621661 223.60152202 -23.1953125 223.609375 C-22.10957443 223.60127808 -21.02383636 223.59318115 -19.90519714 223.58483887 C-13.34784888 223.66451047 -4.83463797 224.17708078 0.12890625 229.140625 C0.69140625 231.390625 0.69140625 231.390625 0.12890625 234.140625 C-2.32658634 236.16960523 -5.08337377 237.61593339 -7.87109375 239.140625 C-12.99140724 242.29158715 -16.78529915 245.17277033 -18.90499973 250.96665001 C-20.76271964 259.24124849 -21.29144973 267.06795038 -21.23999023 275.53369141 C-21.24246589 276.92348526 -21.24631199 278.31327723 -21.25140381 279.70306396 C-21.25966919 282.66963609 -21.25899651 285.63601574 -21.2512188 288.60258865 C-21.23950286 293.31362807 -21.25190976 298.02442707 -21.26783752 302.73544312 C-21.30381457 314.43722113 -21.31027422 326.13899189 -21.30773926 337.84082031 C-21.30601843 346.94093634 -21.31342506 356.04085175 -21.34771782 365.14091241 C-21.36161863 369.04768006 -21.36779033 372.95411171 -21.35467339 376.86088943 C-21.25433802 408.25439149 -24.64559438 435.16114989 -47.05859375 458.890625 C-70.05114848 480.86128841 -99.67944415 485.90699324 -130.39550781 485.27246094 C-137.43208491 485.00554947 -144.07173637 483.99955027 -150.87109375 482.140625 C-151.96139893 481.84260986 -151.96139893 481.84260986 -153.07373047 481.53857422 C-168.91785036 477.03529552 -182.63876477 470.3092732 -194.87109375 459.140625 C-195.59941406 458.48191406 -196.32773437 457.82320312 -197.078125 457.14453125 C-214.29529111 440.78328544 -222.26303619 417.35504227 -222.96471596 394.02822495 C-223.00466293 390.59644926 -223.01445246 387.16589428 -223.01293945 383.73388672 C-223.01827255 381.74745356 -223.02361163 379.7610204 -223.02917612 377.77458787 C-223.0343364 375.66186747 -223.03727443 373.54915319 -223.03975868 371.43642807 C-223.0457248 367.01398664 -223.06231429 362.59162329 -223.08110046 358.16921997 C-223.08743567 356.64870266 -223.09376132 355.12818531 -223.10007763 353.60766792 C-223.10324344 352.84685551 -223.10640925 352.0860431 -223.109671 351.30217576 C-223.15159472 341.02356657 -223.18474541 330.74499778 -223.19702148 320.46630859 C-223.20541715 313.50759456 -223.22795219 306.54907865 -223.26637715 299.59046376 C-223.28606558 295.91763977 -223.29856603 292.2451114 -223.29354286 288.57223129 C-223.28800896 284.47740372 -223.31336255 280.38331196 -223.34106445 276.28857422 C-223.33446304 275.08521423 -223.32786163 273.88185425 -223.32106018 272.64202881 C-223.41439228 264.22804177 -224.77502314 257.90611628 -230.18359375 251.328125 C-235.30490506 247.15961579 -238.82597296 244.68690957 -245.70629883 244.84008789 C-249.5576263 245.37476525 -252.69118795 247.15307902 -256.05859375 249.015625 C-265.30851582 253.94079517 -272.08154072 256.33540036 -282.87109375 255.140625 C-288.74110237 252.96521599 -293.15456299 248.87835216 -295.7734375 243.17578125 C-298.39932069 236.2904009 -299.43192501 229.01004682 -296.43359375 222.078125 C-291.12781185 212.88512094 -281.94036243 206.6928792 -273.60351562 200.44970703 C-270.68147143 198.24170238 -267.80853807 195.97190878 -264.93359375 193.703125 C-263.75526113 192.77467257 -262.57687555 191.84628735 -261.3984375 190.91796875 C-260.52227783 190.22743408 -260.52227783 190.22743408 -259.62841797 189.52294922 C-257.90088473 188.16405881 -256.1698391 186.80978791 -254.4375 185.45703125 C-248.17408808 180.56134761 -241.96573829 175.6069739 -235.80859375 170.578125 C-230.021018 165.85112147 -224.15290966 161.26223244 -218.2109375 156.73046875 C-213.69368307 153.25534451 -209.29569036 149.63329537 -204.8828125 146.02734375 C-200.01890029 142.05794413 -195.10306182 138.1626996 -190.15380859 134.30053711 C-185.7402579 130.84696791 -181.39468411 127.31573626 -177.05859375 123.765625 C-171.59821934 119.29888678 -166.05895034 114.95994205 -160.43359375 110.703125 C-153.83130875 105.70410068 -147.40725017 100.52428703 -141.03759766 95.23291016 C-136.12396519 91.15544728 -131.1448451 87.17793828 -126.10864258 83.25341797 C-121.6498054 79.77164218 -117.25352509 76.21795951 -112.87109375 72.640625 C-107.34572704 68.13129603 -101.77593051 63.68789633 -96.15356445 59.30029297 C-91.74003634 55.84687678 -87.39464299 52.31560683 -83.05859375 48.765625 C-76.88017963 43.71273593 -70.5884991 38.83318646 -64.22509766 34.01611328 C-59.37118597 30.32776085 -54.63547752 26.52014603 -49.93359375 22.640625 C-44.20744631 17.93914905 -38.35994934 13.44040074 -32.37109375 9.078125 C-31.64156494 8.541875 -30.91203613 8.005625 -30.16040039 7.453125 C-20.51524581 0.51152811 -12.10289804 -3.62263615 0 0 Z " fill="#F5F4F4" transform="translate(510.87109375,260.859375)"/>
<path d="M0 0 C1.27760696 -0.01062721 1.27760696 -0.01062721 2.58102417 -0.02146912 C3.5128653 -0.0189917 4.44470642 -0.01651428 5.40478516 -0.01396179 C6.38907501 -0.01907272 7.37336487 -0.02418365 8.38748169 -0.02944946 C11.65633162 -0.04339488 14.92497141 -0.04238266 18.19384766 -0.04008484 C20.47574949 -0.04397372 22.7576506 -0.04830879 25.03955078 -0.05307007 C29.83807713 -0.06054627 34.63652997 -0.06023426 39.43505859 -0.05497742 C45.53483858 -0.04923071 51.63431015 -0.06598972 57.73403931 -0.08932209 C62.45806593 -0.1041934 67.182021 -0.10491225 71.90606689 -0.10181236 C74.15114952 -0.10232053 76.3962367 -0.10746176 78.64129639 -0.11762428 C105.86856502 -0.22558696 132.79772419 2.24158687 153.51025391 21.95991516 C154.65300781 23.09880188 154.65300781 23.09880188 155.81884766 24.26069641 C156.88425781 25.29130188 156.88425781 25.29130188 157.97119141 26.34272766 C170.18224599 38.97566129 174.37007873 55.10580064 174.30908203 72.25654602 C173.8086592 89.32126969 166.71788234 103.07797836 154.64038086 114.97895813 C144.45202517 124.53573293 129.11469262 133.68886261 114.81884766 134.26069641 C114.81884766 134.92069641 114.81884766 135.58069641 114.81884766 136.26069641 C115.52009766 136.35866516 116.22134766 136.45663391 116.94384766 136.55757141 C127.00240567 138.14288762 134.43769915 141.06434154 140.81884766 149.26069641 C148.4383958 160.94994474 153.59076166 173.52486306 158.03613281 186.70503235 C165.29692725 208.22099258 172.43240465 226.60156141 193.19384766 238.13569641 C197.5698845 239.49377681 201.68122317 239.76315362 206.24462891 239.95210266 C208.81884766 240.26069641 208.81884766 240.26069641 210.81884766 242.26069641 C211.81884766 247.26069641 211.81884766 247.26069641 210.81884766 250.26069641 C205.61862181 255.01609642 198.56300656 257.5404802 191.81884766 259.26069641 C191.03509766 259.46565735 190.25134766 259.67061829 189.44384766 259.88179016 C172.48668813 263.6299428 154.45656607 261.95452947 139.37744141 253.01460266 C119.9517047 239.6983343 112.68599708 218.99140227 105.88134766 197.51069641 C96.82879809 164.97668307 96.82879809 164.97668307 76.02197266 140.16694641 C73.18555462 139.00019289 70.8173914 138.92362756 67.75634766 138.88569641 C66.71349609 138.85733704 65.67064453 138.82897766 64.59619141 138.79975891 C61.737408 139.00129722 61.737408 139.00129722 60.01025391 141.03413391 C57.82543951 145.11722967 57.68661092 148.77234387 57.65771484 153.36763 C57.6481073 154.60346832 57.63849976 155.83930664 57.62860107 157.1125946 C57.62374866 158.46143914 57.61947093 159.81028585 57.61572266 161.15913391 C57.61289528 161.84407551 57.6100679 162.52901711 57.60715485 163.23471451 C57.59217109 166.86886732 57.58294011 170.50298062 57.57861328 174.13716125 C57.57317034 177.85307574 57.54922996 181.56861602 57.52064133 185.28441429 C57.50180135 188.17245957 57.49679788 191.06041919 57.4952774 193.94852066 C57.49085798 195.97216827 57.47230608 197.99576963 57.45330811 200.01933289 C57.48401909 212.98854062 59.16205414 226.39565679 66.81884766 237.26069641 C69.60976081 239.74643035 72.51674578 241.53363024 75.81884766 243.26069641 C76.80884766 243.85882141 77.79884766 244.45694641 78.81884766 245.07319641 C79.80884766 245.66100891 79.80884766 245.66100891 80.81884766 246.26069641 C81.81884766 247.26069641 81.81884766 247.26069641 82.13134766 250.07319641 C81.81884766 253.26069641 81.81884766 253.26069641 80.3296051 255.42855835 C76.79495382 258.00784738 73.54481848 257.81305149 69.33422852 257.7624054 C68.48014908 257.76780838 67.62606964 257.77321136 66.74610901 257.77877808 C63.92494992 257.79127858 61.10480861 257.77476713 58.28369141 257.75679016 C56.32361294 257.7569451 54.36353416 257.7584333 52.40345764 257.76119995 C48.29691006 257.76258449 44.19071151 257.75001553 40.08422852 257.72724915 C34.81574654 257.6988457 29.54784378 257.70160621 24.27931881 257.71433926 C20.23274267 257.72128746 16.18630088 257.71351729 12.1397419 257.70108223 C10.19683916 257.69656069 8.25392205 257.69623704 6.31101799 257.70014763 C3.59840089 257.70305191 0.88658787 257.68659132 -1.82592773 257.66474915 C-3.03462021 257.67150162 -3.03462021 257.67150162 -4.26773071 257.6783905 C-9.66364808 257.60604971 -9.66364808 257.60604971 -12.15647888 255.94247437 C-14.08677367 252.77431657 -13.91228221 250.85541825 -13.18115234 247.26069641 C-11.08640694 245.42390267 -8.89367237 244.07614721 -6.50146484 242.65132141 C0.30235316 238.5736123 3.52563837 232.78634676 5.64399815 225.37304115 C7.900703 215.67687632 8.25289217 206.52413679 8.22290039 196.61372375 C8.22861694 194.8873043 8.23558611 193.16088862 8.24369812 191.43447876 C8.26149788 186.78790059 8.26048683 182.14151261 8.25475574 177.49491072 C8.25164623 173.60081639 8.25777543 169.70675767 8.26379448 165.81266844 C8.27779329 156.62213666 8.27631583 147.43169794 8.26489258 138.24116516 C8.25340162 128.7877293 8.26751409 119.33457682 8.29428905 109.88117826 C8.31649323 101.73383422 8.32307324 93.58657884 8.31721264 85.43920672 C8.31385488 80.58647589 8.31617989 75.73392688 8.33346367 70.88122177 C8.34900748 66.31898194 8.34489542 61.7571605 8.32615852 57.19493675 C8.32249388 55.52935677 8.32551848 53.86374525 8.33604431 52.1981945 C8.39829432 41.5266263 8.41512905 29.00484875 0.58837891 20.70600891 C-3.72792706 17.18054929 -8.46890414 14.22182208 -13.18115234 11.26069641 C-12.47802734 6.53413391 -12.47802734 6.53413391 -9.80615234 4.07319641 C-3.922812 0.01088999 -3.922812 0.01088999 0 0 Z " fill="#F4F3F3" transform="translate(533.18115234375,483.7393035888672)"/>
<path d="M0 0 C5.40033744 1.80011248 8.46071371 4.92142741 11 10 C11.54636649 16.44712464 10.73885508 19.70328864 7 25 C3.70967742 28 3.70967742 28 1 28 C1 28.66 1 29.32 1 30 C1.62003906 30.12375 2.24007812 30.2475 2.87890625 30.375 C16.23232692 33.48496697 27.4740761 40.19543847 37 50 C37.94939453 50.91845703 37.94939453 50.91845703 38.91796875 51.85546875 C50.36047945 63.70212994 55.15603805 80.97256041 55.10473633 97.0769043 C54.91180238 102.46151545 54.16759186 107.78237931 53.5 113.125 C50.79744854 136.3729064 50.71736409 157.68120358 64.71484375 177.41796875 C66.74282849 179.83813375 68.83233475 181.87645718 71.375 183.75 C74.22295348 187.6933202 73.56977337 192.32368927 73 197 C71.29654326 201.30346967 69.13056063 203.02257762 65 205 C62.39166908 205.12457645 60.12516419 205.08470652 57.55078125 204.84765625 C56.81064285 204.7912648 56.07050446 204.73487335 55.30793762 204.67677307 C46.5932986 203.96817376 37.91271704 202.8999363 29.23806763 201.81784058 C24.94619577 201.2827359 20.65283959 200.75999569 16.35954285 200.23646545 C14.01443526 199.9504943 11.66939474 199.66397271 9.32441711 199.37693787 C-3.72259173 197.78232824 -16.77630959 196.24563186 -29.83076763 194.71345139 C-34.22739112 194.19742157 -38.62382382 193.67980892 -43.02007961 193.16065598 C-56.54700087 191.56343382 -70.07461715 189.97964807 -83.61328125 188.484375 C-86.57793389 188.15346864 -89.54252541 187.82201907 -92.5071106 187.49050903 C-95.15949151 187.19749854 -97.81289608 186.9157005 -100.46655273 186.63452148 C-102.04547011 186.45870819 -103.62433164 186.28239226 -105.203125 186.10546875 C-106.22790703 186.00277679 -106.22790703 186.00277679 -107.27339172 185.89801025 C-113.47083951 185.18172841 -119.70192806 183.89502634 -123.9375 179.0625 C-126.74461538 174.89435897 -126.74461538 174.89435897 -127 172 C-127.12375 170.700625 -127.2475 169.40125 -127.375 168.0625 C-127.29960908 164.91927848 -127.08252516 164.1166735 -125.1875 161.4375 C-122.60602076 159.2352211 -119.70485886 157.574135 -116.8125 155.8125 C-107.58175522 150.00146738 -101.26945406 143.25005664 -96.125 133.6875 C-95.76776855 133.02508301 -95.41053711 132.36266602 -95.04248047 131.68017578 C-89.06833604 119.88131101 -86.88239809 107.01146752 -84.79638672 94.08935547 C-81.38749985 73.20929587 -73.01556777 54.17915368 -55.8828125 40.984375 C-43.37008419 32.37127746 -29.94798538 28.69034868 -15 27 C-15.804375 26.05125 -16.60875 25.1025 -17.4375 24.125 C-21.03492232 19.88188649 -21.28626627 16.98806197 -21.21484375 11.47265625 C-20.82789937 7.01927821 -18.93090901 4.88650169 -15.7890625 1.89453125 C-10.93159264 -1.4050106 -5.65880362 -0.58441045 0 0 Z " fill="#F5F4F4" transform="translate(755,234)"/>
<path d="M0 0 C1.87075195 -0.00290039 1.87075195 -0.00290039 3.77929688 -0.00585938 C5.07544922 0.01798828 6.37160156 0.04183594 7.70703125 0.06640625 C8.98384766 0.05544922 10.26066406 0.04449219 11.57617188 0.03320312 C22.65465614 0.11864131 30.74193948 2.22206056 38.84375 9.91796875 C50.43835208 21.75581423 53.82402054 37.94153869 53.671875 54.03515625 C53.06061151 68.45470531 48.41070463 82.41868227 37.70703125 92.44140625 C28.59372213 99.98043932 19.42904894 100.83585836 7.99243164 100.86914062 C5.96003987 100.87889181 3.92864112 100.90996469 1.89648438 100.94140625 C-0.02454102 100.94914063 -0.02454102 100.94914063 -1.984375 100.95703125 C-3.15814697 100.96637695 -4.33191895 100.97572266 -5.54125977 100.98535156 C-8.48046875 100.62890625 -8.48046875 100.62890625 -10.12171936 99.39761353 C-15.19660794 92.79154443 -12.62580525 78.3405575 -12.61328125 70.12109375 C-12.61395665 68.54411809 -12.61492864 66.96714254 -12.61618042 65.39016724 C-12.61764541 62.10401405 -12.6155411 58.81788825 -12.61083984 55.53173828 C-12.60513383 51.34148932 -12.60843473 47.15130431 -12.61441231 42.96105766 C-12.61804238 39.71122769 -12.61686829 36.46141263 -12.61428452 33.21158218 C-12.6136225 31.66717649 -12.61441801 30.12276938 -12.61676407 28.57836533 C-12.62228322 23.92691427 -12.58228646 19.27955374 -12.48046875 14.62890625 C-12.46207947 13.69500061 -12.44369019 12.76109497 -12.42474365 11.79888916 C-12.19659689 7.93451053 -11.58881686 5.78073092 -9.32299805 2.60571289 C-5.92322118 0.24137438 -4.11283782 -0.00265059 0 0 Z " fill="#2A446D" transform="translate(602.48046875,503.37109375)"/>
<path d="M0 0 C1.13369019 0.10320557 1.13369019 0.10320557 2.2902832 0.20849609 C3.16338135 0.28455078 4.03647949 0.36060547 4.93603516 0.43896484 C6.37402466 0.58398438 6.37402466 0.58398438 7.84106445 0.73193359 C9.33029419 0.87308594 9.33029419 0.87308594 10.84960938 1.01708984 C19.20166534 1.8422987 27.53865989 2.81355885 35.86734009 3.84686279 C37.26595327 4.02017686 38.66486252 4.19111829 40.0640564 4.35968018 C42.03903266 4.5996418 44.01236639 4.85300663 45.9855957 5.10693359 C47.69839722 5.32349609 47.69839722 5.32349609 49.44580078 5.54443359 C52.15356445 6.10693359 52.15356445 6.10693359 54.15356445 8.10693359 C54.02866084 16.50670167 50.06506358 21.98020844 44.52075195 27.82958984 C38.66201895 33.37494876 32.29563996 35.20212824 24.34106445 35.66943359 C16.41874263 35.42691354 9.74715856 32.45203449 3.95043945 27.05615234 C-1.33737604 20.80186637 -3.89308717 13.77438664 -4.15893555 5.60693359 C-3.67733141 0.21296723 -3.67733141 0.21296723 0 0 Z " fill="#F5F4F4" transform="translate(701.846435546875,434.89306640625)"/>
<path d="M0 0 C-0.99 0.495 -0.99 0.495 -2 1 C-2 1.66 -2 2.32 -2 3 C0.31 3.66 2.62 4.32 5 5 C1.36804504 6.21065165 -0.06531629 5.62784815 -3.6875 4.5625 C-4.68136719 4.27503906 -5.67523437 3.98757813 -6.69921875 3.69140625 C-7.45847656 3.46324219 -8.21773437 3.23507812 -9 3 C-9 2.34 -9 1.68 -9 1 C-5.92677456 0.08941469 -3.19902639 -0.08886184 0 0 Z " fill="#223560" transform="translate(657,617)"/>
<path d="M0 0 C0 0.66 0 1.32 0 2 C2.31 2 4.62 2 7 2 C7.33 2.66 7.66 3.32 8 4 C6.24929483 3.88529863 4.49942464 3.75780972 2.75 3.625 C1.77546875 3.55539062 0.8009375 3.48578125 -0.203125 3.4140625 C-2.89633189 3.01534751 -4.66963279 2.36492937 -7 1 C-4.53721199 -0.231394 -2.7204945 -0.07159196 0 0 Z " fill="#F2E6EB" transform="translate(367,741)"/>
<path d="M0 0 C0.66 0.33 1.32 0.66 2 1 C0.50902342 4.7952131 -1.75700849 6.61042731 -5 9 C-5.66 8.67 -6.32 8.34 -7 8 C-4.69 5.36 -2.38 2.72 0 0 Z " fill="#F0E5E9" transform="translate(451,692)"/>
<path d="M0 0 C0.33 0.99 0.66 1.98 1 3 C-1.31 4.98 -3.62 6.96 -6 9 C-6.66 8.67 -7.32 8.34 -8 8 C-5.36 5.36 -2.72 2.72 0 0 Z " fill="#1F3561" transform="translate(751,457)"/>
<path d="M0 0 C-1.39332574 3.36720387 -2.9789286 4.9859524 -6 7 C-6.66 6.67 -7.32 6.34 -8 6 C-7.0479279 4.99403703 -6.08812654 3.99538437 -5.125 3 C-4.59132813 2.443125 -4.05765625 1.88625 -3.5078125 1.3125 C-2 0 -2 0 0 0 Z " fill="#DEE2E7" transform="translate(653,379)"/>
<path d="M0 0 C0.99 0.33 1.98 0.66 3 1 C3 1.66 3 2.32 3 3 C4.32 3.66 5.64 4.32 7 5 C7 5.99 7 6.98 7 8 C1.125 3.375 1.125 3.375 0 0 Z " fill="#E6E8ED" transform="translate(704,458)"/>
<path d="M0 0 C0.33 0 0.66 0 1 0 C1 2.64 1 5.28 1 8 C0.01 8.33 -0.98 8.66 -2 9 C-2.25 3.375 -2.25 3.375 0 0 Z " fill="#334C73" transform="translate(811,331)"/>
</svg>
